<svg xmlns="http://www.w3.org/2000/svg" viewBox="0 0 100 100"><path d="M50 5C25.1 5 5 25.1 5 50s20.1 45 45 45 45-20.1 45-45S74.9 5 50 5zm0 80c-19.3 0-35-15.7-35-35s15.7-35 35-35 35 15.7 35 35-15.7 35-35 35z" fill="#0B1C3F"/><path d="M65.4 30.8c-1.5-1.2-3.2-2.1-5-2.7-1.8-.6-3.7-.9-5.6-.9-2.4 0-4.7.5-6.9 1.4-2.2.9-4.1 2.2-5.8 3.9-1.7 1.7-3 3.6-3.9 5.8-.9 2.2-1.4 4.5-1.4 6.9 0 2.4.5 4.7 1.4 6.9.9 2.2 2.2 4.1 3.9 5.8 1.7 1.7 3.6 3 5.8 3.9 2.2.9 4.5 1.4 6.9 1.4 1.9 0 3.8-.3 5.6-.9 1.8-.6 3.5-1.5 5-2.7 1.5-1.2 2.8-2.6 3.8-4.3 1-1.7 1.7-3.5 2-5.5h-8.4c-.5 1.2-1.3 2.1-2.4 2.8-1.1.7-2.3 1-3.6 1-1.3 0-2.5-.3-3.6-1-1.1-.7-1.9-1.6-2.4-2.8h20.4c.1-.7.1-1.4.1-2.1 0-2-.3-3.9-1-5.7-.7-1.8-1.6-3.4-2.9-4.8-1.2-1.4-2.7-2.5-4.4-3.3-1.7-.8-3.5-1.2-5.5-1.2-2 0-3.8.4-5.5 1.2-1.7.8-3.2 1.9-4.4 3.3-1.3 1.4-2.2 3-2.9 4.8-.7 1.8-1 3.7-1 5.7 0 2 .3 3.9 1 5.7.7 1.8 1.6 3.4 2.9 4.8 1.3 1.4 2.7 2.5 4.4 3.3 1.7.8 3.5 1.2 5.5 1.2 2 0 3.8-.4 5.5-1.2 1.7-.8 3.2-1.9 4.4-3.3 1.3-1.4 2.2-3 2.9-4.8.7-1.8 1-3.7 1-5.7 0-.7 0-1.4-.1-2.1H50.1c.5-1.2 1.3-2.1 2.4-2.8 1.1-.7 2.3-1 3.6-1 1.3 0 2.5.3 3.6 1 1.1.7 1.9 1.6 2.4 2.8h8.4c-.3-2-1-3.8-2-5.5-1-1.6-2.3-3-3.8-4.2z" fill="#F5A623"/></svg>